<svg width="1024" height="1024" viewBox="0 0 1024 1024" fill="none" xmlns="http://www.w3.org/2000/svg">
<rect width="1024" height="1024" rx="240" fill="url(#paint0_linear)"/>
<path d="M227.626 187C216.852 187 206.518 191.028 198.899 198.199C191.28 205.369 187 215.095 187 225.235C187 235.376 191.28 245.101 198.899 252.272C206.518 259.442 216.852 263.471 227.626 263.471H277.19L289.582 310.194C289.705 310.732 289.84 311.268 289.988 311.8L345.158 519.418L308.879 553.524C257.69 601.7 293.929 684.059 366.325 684.059H715.143C725.917 684.059 736.251 680.03 743.87 672.86C751.489 665.689 755.769 655.964 755.769 645.824C755.769 635.683 751.489 625.958 743.87 618.787C736.251 611.617 725.917 607.588 715.143 607.588H366.325L406.951 569.353H674.516C682.059 569.349 689.452 567.369 695.866 563.635C702.281 559.9 707.465 554.559 710.836 548.209L832.715 318.797C835.81 312.969 837.27 306.494 836.959 299.986C836.647 293.477 834.574 287.152 830.936 281.609C827.297 276.067 822.214 271.491 816.169 268.317C810.124 265.142 803.318 263.474 796.395 263.471H360.881L348.287 215.944C346.086 207.676 341.013 200.337 333.873 195.093C326.733 189.849 317.936 187 308.879 187H227.626ZM755.769 779.647C755.769 794.858 749.349 809.446 737.92 820.202C726.492 830.957 710.992 837 694.829 837C678.667 837 663.167 830.957 651.739 820.202C640.31 809.446 633.89 794.858 633.89 779.647C633.89 764.436 640.31 749.848 651.739 739.092C663.167 728.337 678.667 722.294 694.829 722.294C710.992 722.294 726.492 728.337 737.92 739.092C749.349 749.848 755.769 764.436 755.769 779.647ZM369.819 837C385.981 837 401.481 830.957 412.909 820.202C424.338 809.446 430.758 794.858 430.758 779.647C430.758 764.436 424.338 749.848 412.909 739.092C401.481 728.337 385.981 722.294 369.819 722.294C353.656 722.294 338.156 728.337 326.728 739.092C315.299 749.848 308.879 764.436 308.879 779.647C308.879 794.858 315.299 809.446 326.728 820.202C338.156 830.957 353.656 837 369.819 837V837Z" fill="white"/>
<defs>
<linearGradient id="paint0_linear" x1="0" y1="0" x2="0" y2="1024" gradientUnits="userSpaceOnUse">
<stop stop-color="#FF5952"/>
<stop offset="1" stop-color="#FF1A1A"/>
</linearGradient>
</defs>
</svg>
